<?xml version="1.0" encoding="iso-8859-1"?>
<!-- Uploaded to: SVG Repo, www.svgrepo.com, Generator: SVG Repo Mixer Tools -->
<svg height="800px" width="800px" version="1.1" id="Layer_1" xmlns="http://www.w3.org/2000/svg" xmlns:xlink="http://www.w3.org/1999/xlink" 
	 viewBox="0 0 512 512" xml:space="preserve">
<circle style="fill:#FF92BC;" cx="256" cy="256" r="256"/>
<path style="fill:#FF80AA;" d="M272.334,511.467c119.592-7.533,216.888-97.166,236.172-213.189L341.27,131.043l-177.499,179.26
	l-15.998,42.389l37.393,37.393l-21.395,12.819L272.334,511.467z"/>
<path style="fill:#804000;" d="M157.544,317.818c0-54.375,44.08-98.456,98.456-98.456s98.456,44.08,98.456,98.456
	s-44.08,79.312-98.456,79.312S157.544,372.193,157.544,317.818z"/>
<path style="fill:#683100;" d="M256,219.362c-0.193,0-0.381,0.014-0.574,0.014v177.743c0.193,0,0.381,0.009,0.574,0.009
	c54.375,0,98.456-24.936,98.456-79.312C354.456,263.442,310.375,219.362,256,219.362z"/>
<path style="fill:#663000;" d="M196.508,228.055c0,0-79.522,58.63-54.634,114.816s47.006-84.895,84.864-108.715
	S196.508,228.055,196.508,228.055z"/>
<path style="fill:#562701;" d="M315.492,228.055c0,0,79.522,58.63,54.634,114.816c-24.888,56.186-47.006-84.895-84.864-108.715
	S315.492,228.055,315.492,228.055z"/>
<circle style="fill:#804000;" cx="198.646" cy="156.013" r="37.457"/>
<circle style="fill:#B97850;" cx="198.646" cy="156.013" r="24.972"/>
<circle style="fill:#703601;" cx="313.354" cy="156.013" r="37.457"/>
<circle style="fill:#A86947;" cx="313.354" cy="156.013" r="24.972"/>
<path style="fill:#B97850;" d="M209.455,307.252c0-12.853,10.419-23.273,23.273-23.273S256,294.398,256,307.252
	c0-12.853,10.419-23.273,23.273-23.273c12.853,0,23.273,10.419,23.273,23.273c0,22.254-46.545,48.873-46.545,48.873
	S209.455,330.759,209.455,307.252z"/>
<path style="fill:#A3623E;" d="M279.273,283.979c-12.853,0-23.273,10.419-23.273,23.273c0-1.748-0.209-3.446-0.574-5.084v53.638
	c0.369,0.207,0.574,0.319,0.574,0.319s46.545-26.619,46.545-48.873C302.545,294.398,292.126,283.979,279.273,283.979z"/>
<circle style="fill:#935635;" cx="256" cy="190.388" r="80.555"/>
<path style="fill:#7F462D;" d="M256,109.842c-0.193,0-0.381,0.014-0.574,0.014v161.08c0.193,0.002,0.381,0.014,0.574,0.014
	c44.489,0,80.555-36.066,80.555-80.555C336.555,145.908,300.489,109.842,256,109.842z"/>
<ellipse style="fill:#B97850;" cx="256" cy="230.676" rx="40.277" ry="35.802"/>
<path style="fill:#A3623E;" d="M256,194.872c-0.193,0-0.383,0.01-0.574,0.014v71.578c0.191,0.002,0.381,0.014,0.574,0.014
	c22.245,0,40.277-16.029,40.277-35.802S278.245,194.872,256,194.872z"/>
<circle style="fill:#57442F;" cx="211.851" cy="189.578" r="5.696"/>
<circle style="fill:#4C3A29;" cx="300.149" cy="189.578" r="5.696"/>
<path style="fill:#57442F;" d="M273.03,248.835c-0.698-1.769-2.7-2.639-4.475-1.936c-2.953,1.169-6.016,1.9-9.107,2.217v-20.532
	c5.741-1.524,9.978-6.742,9.978-12.962c0-7.415-6.011-13.426-13.426-13.426c-7.415,0-13.426,6.011-13.426,13.426
	c0,6.222,4.237,11.438,9.978,12.962v20.532c-3.091-0.317-6.154-1.048-9.107-2.217c-1.774-0.703-3.774,0.167-4.475,1.936
	c-0.702,1.77,0.165,3.774,1.936,4.475c4.867,1.927,9.98,2.891,15.095,2.891c5.115,0,10.228-0.964,15.095-2.891
	C272.865,252.609,273.732,250.606,273.03,248.835z"/>
<path style="fill:#4C3A29;" d="M273.03,248.835c-0.698-1.769-2.7-2.639-4.475-1.936c-2.953,1.169-6.016,1.9-9.107,2.217v-20.532
	c5.741-1.524,9.978-6.742,9.978-12.962c0-7.415-6.011-13.426-13.426-13.426c-0.193,0-0.383,0.021-0.574,0.029v53.95
	c0.191,0.003,0.383,0.028,0.574,0.028c5.115,0,10.228-0.964,15.095-2.891C272.865,252.609,273.732,250.606,273.03,248.835z"/>
<circle style="fill:#663000;" cx="191.922" cy="376.725" r="38.447"/>
<circle style="fill:#562701;" cx="320.078" cy="376.725" r="38.447"/>
</svg>